# xmcd
#
# Track frame offsets:
#	150
#	11645
#	30547
#	41650
#	57600
#	70622
#	86482
#	101505
#	116692
#	129422
#	147622
#	168032
#	184567
#
# Disc length: 2613 seconds
#
# Revision: 0
# Processed by: cddbd v1.5.1PL0 Copyright (c) Steve Scherf et al.
# Submitted via: dBpowerAMP V4.0
#
DISCID=ab0a330d
DTITLE=Various Artist - Immortal Love Song Series 1
DYEAR=1900
DGENRE=Blues
TTITLE0=01. Dennis Yost and Classic IV - Where Did All The Good Time Go
TTITLE1=02. Little River Band - Reminiscing
TTITLE2=03. Natalie Cole - Inseparable
TTITLE3=04. David Slater - Exchange Of Heart
TTITLE4=05. Anne Murray - Just Another Woman
TTITLE5=06. Peabo Bryson and Roberta Flack - Tonight I Celebrate My Love
TTITLE6=07. Glen Campbell - Don't Pull Your Love and Then You Can Tell Me Goodbye
TTITLE7=08. Minnie Riperton - Loving You
TTITLE8=09. Joe Cocker - You Are So Beautiful
TTITLE9=10. Helen Reddy - I Didn't Mean To Love You
TTITLE10=11. Marty Balin - Hearts
TTITLE11=12. Anne Muirray - You Needed Me
TTITLE12=13. Glen Campbell and Robbie Gentry - All I Have To Do Is Dream
EXTD=
EXTT0=
EXTT1=
EXTT2=
EXTT3=
EXTT4=
EXTT5=
EXTT6=
EXTT7=
EXTT8=
EXTT9=
EXTT10=
EXTT11=
EXTT12=
PLAYORDER=
